<?xml version="1.0" encoding="utf-8"?>
<svg viewBox="0 0 24 24" fill="none" xmlns="http://www.w3.org/2000/svg">
  <rect width="24" height="24" rx="4" fill="#4B9E47" />
  <path d="M14.125 6.5H9.875C8.83947 6.5 8 7.33947 8 8.375V15.625C8 16.6605 8.83947 17.5 9.875 17.5H14.125C15.1605 17.5 16 16.6605 16 15.625V8.375C16 7.33947 15.1605 6.5 14.125 6.5Z" fill="white" />
  <path d="M12 9.5C11.0335 9.5 10.25 10.2835 10.25 11.25C10.25 12.2165 11.0335 13 12 13C12.9665 13 13.75 12.2165 13.75 11.25C13.75 10.2835 12.9665 9.5 12 9.5Z" fill="#4B9E47" />
  <path d="M12 14.5C10.9395 14.5 10.25 14.9865 10.25 15.75H13.75C13.75 14.9865 13.0605 14.5 12 14.5Z" fill="#4B9E47" />
</svg>