<?xml version="1.0" encoding="utf-8"?>
<svg viewBox="0 0 24 24" fill="none" xmlns="http://www.w3.org/2000/svg">
  <rect width="24" height="24" rx="4" fill="#FFFFFF" />
  <path d="M9 13.5C7.5 13.5 7.25 12.625 7.25 12.25C7.25 11.875 7.32 10.7 8.5 9.5C9.68 8.3 11.5 8 11.5 8H13C13.8 8 16 9 16 11C16 13 13.8 14 13 14H11.5L11 16H8.5L9 13.5Z" fill="#003087" />
  <path d="M10 14.25C8.5 14.25 8.25 13.375 8.25 13C8.25 12.625 8.32 11.45 9.5 10.25C10.68 9.05 12.5 8.75 12.5 8.75H14C14.8 8.75 17 9.75 17 11.75C17 13.75 14.8 14.75 14 14.75H12.5L12 16.75H9.5L10 14.25Z" fill="#0070E0" />
</svg>