<?xml version="1.0" encoding="utf-8"?>
<svg viewBox="0 0 24 24" fill="none" xmlns="http://www.w3.org/2000/svg">
  <rect width="24" height="24" rx="4" fill="#1434CB" />
  <path d="M9.5 15.625H7.5L6 8.375H8L9.5 15.625Z" fill="white" />
  <path d="M12 8.375C10.6 8.375 9.5 9.375 9.5 10.75C9.5 12.75 11.5 13.25 11.5 14.25C11.5 14.75 11 15.125 10 15.125C9 15.125 8 14.75 8 14.75L7.5 16.5C7.5 16.5 8.5 17 10 17C12 17 13.5 16 13.5 14.5C13.5 12.5 11.5 12 11.5 11C11.5 10.5 12 10.125 13 10.125C13.8 10.125 14.5 10.375 14.5 10.375L15 8.75C15 8.75 14.25 8.375 12 8.375Z" fill="white" />
  <path d="M18 15.625H20L18.5 8.375H17C16.1 8.375 15.9 9.125 15.9 9.125L13 15.625H15L15.3 14.625H17.7L18 15.625ZM15.8 13L16.8 10.25L17.3 13H15.8Z" fill="white" />
</svg>